Coordinates
version=1
nRows=19
nColumns=24
inDegrees=yes

Units are S.I. units (second, meters, Newtons, ...)
Angles are in degrees.

endheader
time	pelvis_tilt	pelvis_list	pelvis_rotation	pelvis_tx	pelvis_ty	pelvis_tz	hip_flexion_r	hip_adduction_r	hip_rotation_r	knee_angle_r	ankle_angle_r	subtalar_angle_r	mtp_angle_r	hip_flexion_l	hip_adduction_l	hip_rotation_l	knee_angle_l	ankle_angle_l	subtalar_angle_l	mtp_angle_l	lumbar_extension	lumbar_bending	lumbar_rotation
      3.60500000	    -10.71524217	      4.62154696	     -3.46034223	     -2.22764616	     -0.01616562	     -0.66707790	     17.02379501	     -6.68676002	     -2.97097926	    -58.61593427	    -15.25113941	    -16.54956920	      0.27066058	     26.77928076	      5.17174691	    -13.59096606	    -21.85742653	      1.39285541	     -9.84355786	      1.57412343	      6.22718213	     -4.72078155	      2.44137885
      3.61000000	    -10.88737443	      4.53930709	     -3.30510752	     -2.22275750	     -0.01566993	     -0.66786272	     18.03963992	     -6.64582246	     -3.09242384	    -59.67038423	    -14.67000632	    -17.03983345	     -1.34559018	     26.52734559	      5.25916481	    -13.32679411	    -21.65044289	      1.51436916	     -9.95238893	      1.68664864	      6.36998420	     -4.62441566	      2.13780364
      3.61500000	    -10.89954551	      4.45254006	     -3.23826345	     -2.21781415	     -0.01492732	     -0.66849212	     18.85683095	     -6.57394159	     -3.13471244	    -60.56869139	    -14.23393701	    -17.61880673	     -2.44841326	     26.06304371	      5.30479504	    -13.19213809	    -21.40118594	      1.77270719	     -9.88370796	      1.61499871	      6.35796856	     -4.52346346	      1.92965645
      3.62000000	    -10.88849750	      4.39883775	     -3.17413350	     -2.21284643	     -0.01414258	     -0.66917305	     19.62933485	     -6.54883785	     -3.15092457	    -61.34738591	    -13.91573026	    -18.19844127	     -2.65803104	     25.54774008	      5.39851491	    -13.06510764	    -21.08727813	      1.92756321	     -9.91955257	      1.57763191	      6.33217779	     -4.44743416	      1.70777614
      3.62500000	    -10.98797015	      4.29813808	     -3.06915228	     -2.20795356	     -0.01351410	     -0.66987339	     20.52958077	     -6.47568489	     -3.22366755	    -62.12743606	    -13.37087947	    -18.46912849	     -3.76948581	     25.17799957	      5.45049711	    -12.82840164	    -20.83727753	      2.20574827	     -9.87918310	      1.28403813	      6.41623804	     -4.32256758	      1.47827639
      3.63000000	    -10.94120053	      4.21853069	     -3.00941910	     -2.20298253	     -0.01266139	     -0.67049837	     21.22566777	     -6.41406783	     -3.23177812	    -62.72660950	    -13.04524321	    -18.85783087	     -3.76190334	     24.59676883	      5.51304362	    -12.66619921	    -20.48509586	      2.38304578	     -9.83421389	      1.29313390	      6.36081573	     -4.22092422	      1.28743264
      3.63500000	    -10.97920039	      4.13022282	     -2.90904363	     -2.19808312	     -0.01193048	     -0.67117124	     22.01589442	     -6.35957359	     -3.32304241	    -63.27697504	    -12.75209157	    -19.30830110	     -3.92221992	     24.13097256	      5.57627899	    -12.50146480	    -20.15863913	      2.52730314	     -9.87958499	      1.17788985	      6.38881102	     -4.11045757	      1.03585123
      3.64000000	    -10.95181385	      4.03864002	     -2.83949980	     -2.19313516	     -0.01110856	     -0.67176965	     22.70697519	     -6.27873398	     -3.34327715	    -63.72738108	    -12.39883229	    -19.54690871	     -3.88771038	     23.55910602	      5.62278723	    -12.33760410	    -19.78274964	      2.71387647	     -9.81752094	      1.17422364	      6.35630373	     -3.99605120	      0.86306507
      3.64500000	    -10.94956903	      3.96996118	     -2.72699979	     -2.18820203	     -0.01035362	     -0.67243197	     23.41320585	     -6.25070113	     -3.42757888	    -64.11783216	    -12.01823945	    -19.76183112	     -3.85261446	     23.02217894	      5.70709481	    -12.18541999	    -19.40876185	      2.87879741	     -9.78348596	      1.08447406	      6.35271049	     -3.90624271	      0.62631639
      3.65000000	    -10.92464698	      3.88244680	     -2.66494037	     -2.18325878	     -0.00953481	     -0.67296524	     24.07713695	     -6.16065842	     -3.45298796	    -64.40783869	    -11.65117165	    -19.95078801	     -3.76518934	     22.43909435	      5.74526814	    -12.04142446	    -19.00474127	      3.02839279	     -9.70889750	      1.06415192	      6.33578461	     -3.79635563	      0.44680362
      3.65500000	    -10.86807093	      3.82262818	     -2.53662871	     -2.17828828	     -0.00872799	     -0.67362578	     24.67043403	     -6.14951330	     -3.53990684	    -64.62027398	    -11.18442181	    -19.98363613	     -3.46709117	     21.81945196	      5.84369344	    -11.88854509	    -18.59013550	      3.17816552	     -9.65155694	      0.92044468	      6.28509525	     -3.71949833	      0.18069773
      3.66000000	    -10.75191484	      3.76042412	     -2.46817484	     -2.17327338	     -0.00782028	     -0.67425949	     25.17578774	     -6.11245025	     -3.56631705	    -64.69605016	    -10.91635803	    -20.16391859	     -2.45119736	     21.09817945	      5.93541613	    -11.70827414	    -18.12484330	      3.37319953	     -9.61327844	      0.48601387	      6.18315091	     -3.62469495	      0.02404608
      3.66500000	    -10.70795219	      3.68931105	     -2.35940726	     -2.16831445	     -0.00705438	     -0.67482800	     25.75231162	     -6.05934869	     -3.62863077	    -64.75608288	    -10.41985570	    -20.15057611	     -2.17932839	     20.48312490	      5.99274415	    -11.60386258	    -17.69579373	      3.54138395	     -9.45164378	      0.50739503	      6.14838435	     -3.53540964	     -0.20497350
      3.67000000	    -10.53067887	      3.62793696	     -2.30007322	     -2.16326257	     -0.00610656	     -0.67540626	     26.14245285	     -6.01778787	     -3.65858581	    -64.66531321	    -10.06936879	    -20.23751740	     -1.14794304	     19.67433445	      6.06697395	    -11.49584314	    -17.18189689	      3.64166861	     -9.38439081	      0.47447952	      5.99225474	     -3.44444658	     -0.36720576
      3.67500000	    -10.47856595	      3.54574072	     -2.18884335	     -2.15827741	     -0.00536804	     -0.67597615	     26.66268574	     -5.95556172	     -3.73301261	    -64.56521953	     -9.50580023	    -20.12163551	     -0.83103683	     19.04121021	      6.10702130	    -11.39229923	    -16.73913247	      3.79664334	     -9.21104785	      0.52180088	      5.95838821	     -3.34040662	     -0.59972839
      3.68000000	    -10.33809238	      3.47050022	     -2.09887878	     -2.15324133	     -0.00452983	     -0.67653771	     27.05414470	     -5.90217832	     -3.79879586	    -64.36103074	     -8.95999638	    -20.00307644	     -0.37410353	     18.28469263	      6.15550071	    -11.30418933	    -16.24665866	      3.91547002	     -9.06519789	      0.57152175	      5.83858027	     -3.23903913	     -0.80195883
      3.68500000	    -10.20296304	      3.38502073	     -2.00367523	     -2.14821241	     -0.00372489	     -0.67709784	     27.42921467	     -5.84177785	     -3.88489617	    -64.07625662	     -8.44121892	    -19.92141392	      0.10924799	     17.53507352	      6.19008260	    -11.20168149	    -15.75630260	      4.03217579	     -8.91494258	      0.64006369	      5.72535301	     -3.12825036	     -1.00256326
      3.69000000	    -10.00033114	      3.30010992	     -1.95005662	     -2.14317125	     -0.00285635	     -0.67760239	     27.70721356	     -5.76574598	     -3.94408634	    -63.67710738	     -8.07964514	    -20.00367467	      0.99590674	     16.69147699	      6.21656301	    -11.10890491	    -15.22591229	      4.10669510	     -8.81233085	      0.78705171	      5.54152730	     -3.00910987	     -1.14840493
      3.69500000	     -9.97775555	      3.20852606	     -1.81584861	     -2.13817526	     -0.00228437	     -0.67817802	     28.17599813	     -5.71918265	     -4.08978306	    -63.28353866	     -7.53416181	    -19.87745488	      1.23073638	     16.09327217	      6.23581721	    -10.98824091	    -14.78772704	      4.26453613	     -8.61954207	      0.86273577	      5.54615989	     -2.89071501	     -1.37811738
